<?xml version="1.0" encoding="UTF-8"?>
<svg width="200px" height="63px" viewBox="0 0 200 63" version="1.1" xmlns="http://www.w3.org/2000/svg" xmlns:xlink="http://www.w3.org/1999/xlink">
    <!-- Generator: Sketch 52.6 (67491) - http://www.bohemiancoding.com/sketch -->
    <title>Logo / Client</title>
    <desc>Created with Sketch.</desc>
    <g id="Pages" stroke="none" stroke-width="1" fill="none" fill-rule="evenodd">
        <g id="Woodland-Software---Frontpage" transform="translate(-599.000000, -14.000000)">
            <g id="Main-Menu">
                <g id="Logo-/-Client" transform="translate(599.000000, 14.000000)">
                    <g id="Logo-Reconstruction">
                        <path d="M84.6669111,51.5092605 C84.2861556,51.5092605 83.9624007,51.4697775 83.6956368,51.3908102 C83.428873,51.311843 83.1779776,51.2146086 82.9429434,51.0991043 L82.9429434,50.2222185 L82.9923003,50.2222185 C83.2226339,50.4390838 83.483518,50.607034 83.7749605,50.7260742 C84.066403,50.8451144 84.3472647,50.9046336 84.6175542,50.9046336 C85.0030104,50.9046336 85.2944485,50.8238996 85.4918773,50.6624293 C85.689306,50.5009589 85.788019,50.288222 85.788019,50.024212 C85.788019,49.8144184 85.7363122,49.6435217 85.6328971,49.5115167 C85.529482,49.3795117 85.3649605,49.2816881 85.1393276,49.2180428 C84.977154,49.1708982 84.8290846,49.1320045 84.6951151,49.1013605 C84.5611455,49.0707164 84.3930986,49.0294655 84.1909691,48.9776064 C84.0099927,48.9304618 83.8478215,48.8703533 83.7044506,48.7972791 C83.5610797,48.7242049 83.4341631,48.6287385 83.323697,48.5108769 C83.2155812,48.3953725 83.1315577,48.2592445 83.071624,48.1024886 C83.0116902,47.9457326 82.9817238,47.7648178 82.9817238,47.5597387 C82.9817238,47.1330798 83.1474205,46.7753752 83.4788188,46.4866144 C83.8102171,46.1978535 84.2332725,46.0534752 84.7479975,46.0534752 C85.0417904,46.0534752 85.3197142,46.0829402 85.5817774,46.141871 C85.8438406,46.2008017 86.0865099,46.2844822 86.3097924,46.3929149 L86.3097924,47.2309065 L86.25691,47.2309065 C86.0900356,47.0776865 85.8761577,46.9439156 85.6152696,46.8295898 C85.3543816,46.7152641 85.0805708,46.6581021 84.793829,46.6581021 C84.4694817,46.6581021 84.2074224,46.7341217 84.0076433,46.8861631 C83.8078641,47.0382046 83.7079761,47.2379769 83.7079761,47.4854863 C83.7079761,47.7094233 83.7667338,47.8873916 83.8842509,48.0193966 C84.001768,48.1514015 84.1721653,48.2480466 84.3954479,48.3093346 C84.5435195,48.3494075 84.7244931,48.3947836 84.9383743,48.445464 C85.1522555,48.4961445 85.3297037,48.5426991 85.4707243,48.5851293 C85.8326771,48.6959192 86.0970866,48.8632801 86.263961,49.0872171 C86.4308353,49.3111541 86.5142712,49.5869461 86.5142712,49.9146013 C86.5142712,50.1196804 86.4725533,50.3223993 86.3891161,50.522764 C86.3056789,50.7231287 86.1887511,50.8928468 86.0383292,51.0319235 C85.8691045,51.1851435 85.678142,51.3030034 85.465436,51.3855065 C85.25273,51.4680096 84.9865577,51.5092605 84.6669111,51.5092605 Z M92.7055505,49.4408001 C92.7055505,50.1055394 92.5457296,50.6188189 92.226083,50.980654 C91.9064364,51.342489 91.4810308,51.5234038 90.9498533,51.5234038 C90.4022235,51.5234038 89.9715296,51.336596 89.6577589,50.9629748 C89.3439881,50.5893536 89.1871051,50.0819671 89.1871051,49.4408001 C89.1871051,48.7807753 89.3486888,48.2680851 89.6718609,47.9027142 C89.995033,47.5373433 90.4210262,47.3546606 90.9498533,47.3546606 C91.4810308,47.3546606 91.9064364,47.536754 92.226083,47.9009463 C92.5457296,48.2651385 92.7055505,48.778418 92.7055505,49.4408001 Z M92.0216042,49.4408001 C92.0216042,48.9292808 91.9287671,48.549183 91.74309,48.300495 C91.5574129,48.0518071 91.2930033,47.927465 90.9498533,47.927465 C90.6043529,47.927465 90.3381806,48.0518071 90.1513284,48.300495 C89.9644761,48.549183 89.8710514,48.9292808 89.8710514,49.4408001 C89.8710514,49.9358187 89.9644761,50.3112023 90.1513284,50.5669619 C90.3381806,50.8227215 90.6043529,50.9505994 90.9498533,50.9505994 C91.290653,50.9505994 91.554475,50.8250787 91.7413273,50.5740335 C91.9281795,50.3229884 92.0216042,49.9452477 92.0216042,49.4408001 Z M97.7369415,46.5484914 L97.7016866,46.5484914 C97.642928,46.5272763 97.5583169,46.5066508 97.4478508,46.4866144 C97.3373847,46.4665779 97.2386718,46.4565598 97.1517091,46.4565598 C96.8720183,46.4565598 96.6728298,46.5196148 96.5541375,46.6457267 C96.4354452,46.7718386 96.3760999,46.9998973 96.3760999,47.3299098 L96.3760999,47.4642713 L97.4725293,47.4642713 L97.4725293,48.0158607 L96.3972529,48.0158607 L96.3972529,51.4137931 L95.7344596,51.4137931 L95.7344596,48.0158607 L95.2867215,48.0158607 L95.2867215,47.4642713 L95.7344596,47.4642713 L95.7344596,47.3334456 C95.7344596,46.8572848 95.8484495,46.4954552 96.0764327,46.2479459 C96.304416,46.0004365 96.6311087,45.8766837 97.0565207,45.8766837 C97.1787385,45.8766837 97.2986042,45.883166 97.4161213,45.8961308 C97.5336385,45.9090956 97.6405775,45.923828 97.7369415,45.9403287 L97.7369415,46.5484914 Z M101.432169,51.4915814 C101.070217,51.4915814 100.78818,51.388454 100.58605,51.1821963 C100.383921,50.9759385 100.282858,50.6500561 100.282858,50.2045393 L100.282858,48.0158607 L99.8351195,48.0158607 L99.8351195,47.4642713 L100.282858,47.4642713 L100.282858,46.3292699 L100.945651,46.3292699 L100.945651,47.4642713 L102.165473,47.4642713 L102.165473,48.0158607 L100.945651,48.0158607 L100.945651,49.8933863 C100.945651,50.093751 100.949176,50.2481474 100.956227,50.35658 C100.963278,50.4650127 100.990307,50.5663721 101.037314,50.6606614 C101.07727,50.7431645 101.141903,50.8050409 101.231216,50.8462924 C101.320529,50.887544 101.44157,50.9081695 101.594342,50.9081695 C101.702458,50.9081695 101.807047,50.8922584 101.908111,50.8604357 C102.009176,50.8286131 102.082036,50.8020947 102.126692,50.7808796 L102.165473,50.7808796 L102.165473,51.3784348 C102.040904,51.4137933 101.914575,51.4414903 101.786482,51.4615268 C101.658388,51.4815633 101.540285,51.4915814 101.432169,51.4915814 Z M109.707017,47.4642713 L108.709302,51.4137931 L108.095865,51.4137931 L107.133405,48.3694437 L106.177995,51.4137931 L105.568084,51.4137931 L104.559792,47.4642713 L105.25079,47.4642713 L105.945312,50.522764 L106.879569,47.4642713 L107.426021,47.4642713 L108.384956,50.522764 L109.040698,47.4642713 L109.707017,47.4642713 Z M114.706679,50.4414399 L114.706679,49.3453327 C114.549206,49.3594761 114.350017,49.378923 114.109107,49.4036739 C113.868197,49.4284248 113.673709,49.4631935 113.525637,49.5079809 C113.349362,49.5621972 113.203643,49.6452884 113.088476,49.7572569 C112.973309,49.8692254 112.915726,50.0253896 112.915726,50.2257543 C112.915726,50.4520485 112.979185,50.6229453 113.106103,50.7384496 C113.233022,50.853954 113.418696,50.9117053 113.663132,50.9117053 C113.872312,50.9117053 114.061512,50.8663293 114.230737,50.7755758 C114.399961,50.6848224 114.558607,50.5734449 114.706679,50.4414399 Z M114.706679,50.9930294 C114.652621,51.0331023 114.580349,51.0890857 114.489861,51.1609813 C114.399372,51.2328768 114.311823,51.2900389 114.227211,51.332469 C114.109694,51.393757 113.996292,51.440901 113.887001,51.4739022 C113.77771,51.5069035 113.624352,51.5234038 113.426923,51.5234038 C113.26475,51.5234038 113.110805,51.4927603 112.965083,51.4314723 C112.819362,51.3701842 112.69127,51.2841466 112.580804,51.1733567 C112.475039,51.064924 112.390428,50.9311531 112.326969,50.77204 C112.263509,50.6129269 112.23178,50.4449766 112.23178,50.2681843 C112.23178,49.9947454 112.289363,49.7619723 112.404529,49.5698579 C112.519696,49.3777435 112.701845,49.2251151 112.950981,49.1119679 C113.171914,49.010607 113.432798,48.9404804 113.733642,48.9015861 C114.034485,48.8626918 114.358828,48.8338161 114.706679,48.8149582 L114.706679,48.6876684 C114.706679,48.5320911 114.683176,48.4065704 114.636169,48.3111025 C114.589162,48.2156346 114.523353,48.1419722 114.438741,48.0901131 C114.354129,48.0358968 114.250715,47.9999496 114.128497,47.9822703 C114.006279,47.9645911 113.880538,47.9557516 113.751269,47.9557516 C113.598497,47.9557516 113.418698,47.9787343 113.211868,48.0247003 C113.005038,48.0706663 112.798211,48.1372571 112.591381,48.2244747 L112.5526,48.2244747 L112.5526,47.5491312 C112.674818,47.5137727 112.849916,47.474879 113.077899,47.4324488 C113.305883,47.3900186 113.531512,47.3688039 113.754795,47.3688039 C114.025084,47.3688039 114.253064,47.3900186 114.438741,47.4324488 C114.624418,47.474879 114.79129,47.5514879 114.939361,47.6622777 C115.082732,47.7707104 115.189671,47.9109636 115.260182,48.0830415 C115.330692,48.2551194 115.365946,48.4649099 115.365946,48.7124192 L115.365946,51.4137931 L114.706679,51.4137931 L114.706679,50.9930294 Z M120.66175,48.1785089 L120.626495,48.1785089 C120.577137,48.1643655 120.524843,48.155526 120.46961,48.1519902 C120.414377,48.1484543 120.347981,48.1466864 120.27042,48.1466864 C120.091794,48.1466864 119.914345,48.1855802 119.73807,48.2633688 C119.561794,48.3411574 119.394922,48.4566601 119.237449,48.6098801 L119.237449,51.4137931 L118.574656,51.4137931 L118.574656,47.4642713 L119.237449,47.4642713 L119.237449,48.051219 C119.479534,47.8367109 119.690474,47.6852611 119.870276,47.5968649 C120.050077,47.5084687 120.224587,47.4642713 120.393812,47.4642713 C120.461972,47.4642713 120.513091,47.4660392 120.547171,47.469575 C120.581251,47.4731109 120.619443,47.4784146 120.66175,47.4854863 L120.66175,48.1785089 Z M125.129061,51.5057247 C124.50152,51.5057247 124.014419,51.3283457 123.667743,50.9735823 C123.321067,50.6188189 123.147732,50.1149682 123.147732,49.4620151 C123.147732,48.8184909 123.315779,48.30639 123.651878,47.9256971 C123.987977,47.5450042 124.427485,47.3546606 124.970414,47.3546606 C125.21485,47.3546606 125.431078,47.3900185 125.619105,47.4607355 C125.807133,47.5314524 125.971654,47.6422406 126.112675,47.7931034 C126.253695,47.9439663 126.361809,48.1284169 126.43702,48.3464608 C126.512231,48.5645047 126.549836,48.8314572 126.549836,49.1473262 L126.549836,49.5079809 L123.821102,49.5079809 C123.821102,49.967641 123.936267,50.3188633 124.166601,50.5616581 C124.396934,50.804453 124.715401,50.9258486 125.12201,50.9258486 C125.267731,50.9258486 125.410513,50.9093482 125.550358,50.876347 C125.690203,50.8433457 125.816532,50.8009162 125.929349,50.7490571 C126.049216,50.6948408 126.15028,50.6423932 126.232542,50.5917127 C126.314804,50.5410322 126.382963,50.493299 126.43702,50.4485116 L126.475801,50.4485116 L126.475801,51.1733567 C126.39824,51.2040007 126.301877,51.2423051 126.18671,51.2882711 C126.071543,51.3342372 125.96813,51.3701844 125.876466,51.396114 C125.747198,51.4314724 125.63027,51.4585802 125.52568,51.477438 C125.421089,51.4962959 125.288885,51.5057247 125.129061,51.5057247 Z M125.90467,48.9988214 C125.89997,48.8196718 125.878817,48.6652754 125.841211,48.5356277 C125.803606,48.40598 125.749549,48.2963703 125.679039,48.2067955 C125.601477,48.1077918 125.502177,48.0323615 125.381134,47.9805024 C125.260092,47.9286433 125.110259,47.9027142 124.931633,47.9027142 C124.755358,47.9027142 124.605526,47.9292326 124.482133,47.9822703 C124.35874,48.0353081 124.246512,48.1125062 124.145448,48.2138672 C124.046733,48.3175854 123.971524,48.4324987 123.919816,48.5586106 C123.868108,48.6847225 123.835204,48.8314579 123.821102,48.9988214 L125.90467,48.9988214 Z M136.136676,51.5092605 C135.793526,51.5092605 135.477997,51.4515092 135.19008,51.3360048 C134.902163,51.2205005 134.653618,51.0484252 134.444438,50.8197737 C134.235257,50.5911222 134.073086,50.3059015 133.957919,49.9641029 C133.842753,49.6223043 133.78517,49.2298311 133.78517,48.7866716 C133.78517,48.3458693 133.84099,47.9616463 133.952631,47.6339911 C134.064273,47.3063359 134.227031,47.0211152 134.440912,46.7783203 C134.650093,46.5425972 134.89805,46.3628609 135.184792,46.2391063 C135.471534,46.1153516 135.792351,46.0534752 136.147253,46.0534752 C136.323528,46.0534752 136.488638,46.0664398 136.642585,46.0923693 C136.796532,46.1182989 136.939314,46.1512996 137.070933,46.1913726 C137.183749,46.226731 137.299502,46.2709285 137.418194,46.3239662 C137.536887,46.3770039 137.653814,46.4353445 137.768981,46.4989898 L137.768981,47.3440531 L137.712573,47.3440531 C137.651464,47.2874795 137.572729,47.2191208 137.476365,47.1389749 C137.380001,47.0588291 137.262485,46.979863 137.123815,46.9020744 C136.989846,46.8290002 136.844127,46.7688917 136.686654,46.721747 C136.529181,46.6746024 136.347032,46.6510304 136.140202,46.6510304 C135.916919,46.6510304 135.705392,46.6969958 135.505612,46.7889278 C135.305833,46.8808598 135.130735,47.0163986 134.980313,47.1955482 C134.832242,47.3746978 134.717077,47.5998101 134.634815,47.8708917 C134.552553,48.1419733 134.511422,48.4472303 134.511422,48.7866716 C134.511422,49.147328 134.554903,49.4578886 134.641866,49.7183627 C134.728828,49.9788368 134.847519,50.1986454 134.997941,50.377795 C135.143662,50.5522301 135.315235,50.6836438 135.512663,50.77204 C135.710092,50.8604362 135.91927,50.9046336 136.140202,50.9046336 C136.342331,50.9046336 136.529181,50.8798831 136.700756,50.8303812 C136.872331,50.7808793 137.025101,50.7184136 137.15907,50.6429822 C137.288339,50.569908 137.399979,50.4950671 137.493992,50.418457 C137.588006,50.341847 137.662041,50.2764348 137.716099,50.2222185 L137.768981,50.2222185 L137.768981,51.0566743 C137.653814,51.1108906 137.545113,51.1627489 137.442873,51.2122508 C137.340633,51.2617527 137.216654,51.3100752 137.070933,51.3572198 C136.918161,51.4067217 136.776555,51.4444368 136.64611,51.4703664 C136.515666,51.4962959 136.345857,51.5092605 136.136676,51.5092605 Z M143.886225,49.4408001 C143.886225,50.1055394 143.726404,50.6188189 143.406757,50.980654 C143.087111,51.342489 142.661705,51.5234038 142.130528,51.5234038 C141.582898,51.5234038 141.152204,51.336596 140.838433,50.9629748 C140.524663,50.5893536 140.36778,50.0819671 140.36778,49.4408001 C140.36778,48.7807753 140.529363,48.2680851 140.852535,47.9027142 C141.175707,47.5373433 141.601701,47.3546606 142.130528,47.3546606 C142.661705,47.3546606 143.087111,47.536754 143.406757,47.9009463 C143.726404,48.2651385 143.886225,48.778418 143.886225,49.4408001 Z M143.202279,49.4408001 C143.202279,48.9292808 143.109442,48.549183 142.923764,48.300495 C142.738087,48.0518071 142.473678,47.927465 142.130528,47.927465 C141.785027,47.927465 141.518855,48.0518071 141.332003,48.300495 C141.145151,48.549183 141.051726,48.9292808 141.051726,49.4408001 C141.051726,49.9358187 141.145151,50.3112023 141.332003,50.5669619 C141.518855,50.8227215 141.785027,50.9505994 142.130528,50.9505994 C142.471327,50.9505994 142.735149,50.8250787 142.922002,50.5740335 C143.108854,50.3229884 143.202279,49.9452477 143.202279,49.4408001 Z M151.314954,51.4137931 L151.314954,49.1296471 C151.314954,48.9481403 151.307903,48.78019 151.293801,48.6257914 C151.279698,48.4713927 151.25032,48.3505864 151.205663,48.2633688 C151.158656,48.1690795 151.091673,48.0995422 151.00471,48.0547548 C150.917747,48.0099674 150.800232,47.9875741 150.65216,47.9875741 C150.51584,47.9875741 150.369534,48.0294143 150.213236,48.113096 C150.056938,48.1967778 149.895354,48.3175841 149.72848,48.4755186 C149.73083,48.5155915 149.733768,48.5633247 149.737294,48.6187197 C149.740819,48.6741146 149.742582,48.7395268 149.742582,48.8149582 L149.742582,51.4137931 L149.079789,51.4137931 L149.079789,49.1296471 C149.079789,48.9481403 149.072738,48.78019 149.058636,48.6257914 C149.044534,48.4713927 149.015155,48.3505864 148.970498,48.2633688 C148.923492,48.1690795 148.856508,48.0995422 148.769545,48.0547548 C148.682582,48.0099674 148.565067,47.9875741 148.416995,47.9875741 C148.273625,47.9875741 148.123205,48.0323608 147.965732,48.1219356 C147.808259,48.2115104 147.655489,48.3258344 147.507417,48.4649111 L147.507417,51.4137931 L146.844624,51.4137931 L146.844624,47.4642713 L147.507417,47.4642713 L147.507417,47.9027142 C147.681343,47.728279 147.853503,47.5933295 148.023903,47.4978617 C148.194302,47.4023938 148.381739,47.3546606 148.586219,47.3546606 C148.818903,47.3546606 149.025143,47.4076975 149.204944,47.5137729 C149.384745,47.6198483 149.521651,47.7942808 149.615664,48.0370757 C149.815443,47.8131387 150.010519,47.6434206 150.200897,47.5279162 C150.391274,47.4124119 150.598101,47.3546606 150.821384,47.3546606 C150.990609,47.3546606 151.144554,47.381179 151.283224,47.4342167 C151.421894,47.4872544 151.542935,47.5727028 151.64635,47.6905644 C151.752116,47.8107832 151.833789,47.9604652 151.891372,48.1396148 C151.948956,48.3187644 151.977747,48.5438766 151.977747,48.8149582 L151.977747,51.4137931 L151.314954,51.4137931 Z M158.489846,49.3347252 C158.489846,49.9923928 158.332963,50.5162797 158.019193,50.9064015 C157.705422,51.2965234 157.308807,51.4915814 156.829338,51.4915814 C156.634259,51.4915814 156.461511,51.469188 156.31109,51.4244006 C156.160668,51.3796132 156.006722,51.3100759 155.84925,51.2157866 L155.84925,52.870555 L155.186456,52.870555 L155.186456,47.4642713 L155.84925,47.4642713 L155.84925,47.8779634 C156.013774,47.7294578 156.19651,47.6051157 156.397464,47.5049333 C156.598419,47.404751 156.817585,47.3546606 157.054969,47.3546606 C157.506235,47.3546606 157.858194,47.5338075 158.110855,47.8921067 C158.363517,48.2504059 158.489846,48.7312739 158.489846,49.3347252 Z M157.8059,49.4089776 C157.8059,48.9587464 157.734216,48.6092921 157.590845,48.3606041 C157.447474,48.1119162 157.214793,47.9875741 156.892796,47.9875741 C156.704769,47.9875741 156.523208,48.0294143 156.348107,48.113096 C156.173007,48.1967778 156.006722,48.3046195 155.84925,48.4366245 L155.84925,50.6748047 C156.023175,50.759665 156.171832,50.8174163 156.295225,50.8480603 C156.418618,50.8787044 156.560224,50.8940261 156.720047,50.8940261 C157.063197,50.8940261 157.329957,50.7679161 157.520335,50.5156923 C157.710713,50.2634686 157.8059,49.8945674 157.8059,49.4089776 Z M163.655206,50.4414399 L163.655206,49.3453327 C163.497733,49.3594761 163.298545,49.378923 163.057635,49.4036739 C162.816724,49.4284248 162.622236,49.4631935 162.474165,49.5079809 C162.297889,49.5621972 162.15217,49.6452884 162.037003,49.7572569 C161.921837,49.8692254 161.864254,50.0253896 161.864254,50.2257543 C161.864254,50.4520485 161.927712,50.6229453 162.054631,50.7384496 C162.181549,50.853954 162.367224,50.9117053 162.611659,50.9117053 C162.82084,50.9117053 163.010039,50.8663293 163.179264,50.7755758 C163.348489,50.6848224 163.507135,50.5734449 163.655206,50.4414399 Z M163.655206,50.9930294 C163.601148,51.0331023 163.528876,51.0890857 163.438388,51.1609813 C163.3479,51.2328768 163.260351,51.2900389 163.175739,51.332469 C163.058222,51.393757 162.944819,51.440901 162.835528,51.4739022 C162.726237,51.5069035 162.57288,51.5234038 162.375451,51.5234038 C162.213277,51.5234038 162.059332,51.4927603 161.913611,51.4314723 C161.76789,51.3701842 161.639798,51.2841466 161.529332,51.1733567 C161.423566,51.064924 161.338955,50.9311531 161.275496,50.77204 C161.212037,50.6129269 161.180308,50.4449766 161.180308,50.2681843 C161.180308,49.9947454 161.23789,49.7619723 161.353057,49.5698579 C161.468224,49.3777435 161.650373,49.2251151 161.899509,49.1119679 C162.120441,49.010607 162.381325,48.9404804 162.682169,48.9015861 C162.983013,48.8626918 163.307355,48.8338161 163.655206,48.8149582 L163.655206,48.6876684 C163.655206,48.5320911 163.631703,48.4065704 163.584696,48.3111025 C163.537689,48.2156346 163.471881,48.1419722 163.387268,48.0901131 C163.302656,48.0358968 163.199243,47.9999496 163.077025,47.9822703 C162.954807,47.9645911 162.829066,47.9557516 162.699797,47.9557516 C162.547024,47.9557516 162.367226,47.9787343 162.160396,48.0247003 C161.953566,48.0706663 161.746739,48.1372571 161.539908,48.2244747 L161.501128,48.2244747 L161.501128,47.5491312 C161.623346,47.5137727 161.798444,47.474879 162.026427,47.4324488 C162.25441,47.3900186 162.48004,47.3688039 162.703322,47.3688039 C162.973612,47.3688039 163.201591,47.3900186 163.387268,47.4324488 C163.572946,47.474879 163.739817,47.5514879 163.887889,47.6622777 C164.03126,47.7707104 164.138199,47.9109636 164.208709,48.0830415 C164.279219,48.2551194 164.314474,48.4649099 164.314474,48.7124192 L164.314474,51.4137931 L163.655206,51.4137931 L163.655206,50.9930294 Z M170.618569,51.4137931 L169.955776,51.4137931 L169.955776,49.1650054 C169.955776,48.9834986 169.946962,48.8143697 169.929335,48.6576138 C169.911707,48.5008579 169.878215,48.3753372 169.828858,48.281048 C169.7748,48.1820442 169.69959,48.1083818 169.603226,48.0600586 C169.506862,48.0117353 169.375245,47.9875741 169.208371,47.9875741 C169.043847,47.9875741 168.874037,48.0317715 168.698936,48.1201677 C168.523836,48.2085639 168.352851,48.3234772 168.185977,48.4649111 L168.185977,51.4137931 L167.523183,51.4137931 L167.523183,47.4642713 L168.185977,47.4642713 L168.185977,47.9027142 C168.383405,47.7259218 168.578481,47.590383 168.771209,47.4960938 C168.963937,47.4018045 169.167239,47.3546606 169.38112,47.3546606 C169.768927,47.3546606 170.072116,47.4825385 170.290698,47.7382981 C170.50928,47.9940577 170.618569,48.3647268 170.618569,48.8503165 L170.618569,51.4137931 Z M176.922664,47.4642713 L174.803841,52.870555 L174.095216,52.870555 L174.800316,51.2228583 L173.368964,47.4642713 L174.08464,47.4642713 L175.159916,50.3884025 L176.231667,47.4642713 L176.922664,47.4642713 Z" id="Software-Company" fill="#646464"></path>
                        <path d="M98.731047,31.0275 C98.731047,32.0099187 98.5523484,32.9392198 98.1949459,33.815431 C97.8375434,34.6916423 97.33454,35.4583157 96.6859206,36.1154741 C96.0373012,36.7726326 95.2695592,37.293705 94.3826715,37.6787069 C93.4957838,38.0637088 92.5162509,38.2562069 91.4440433,38.2562069 C90.3718358,38.2562069 89.3923029,38.0670278 88.5054152,37.6886638 C87.6185275,37.3102998 86.8574039,36.7958653 86.2220217,36.1453448 C85.5866394,35.4948243 85.0902545,34.7314699 84.732852,33.8552586 C84.3754495,32.9790473 84.1967509,32.0497463 84.1967509,31.0673276 C84.1967509,30.0849089 84.3754495,29.1556078 84.732852,28.2793966 C85.0902545,27.4031853 85.5932579,26.6365119 86.2418773,25.9793534 C86.8904966,25.322195 87.6582387,24.8011226 88.5451264,24.4161207 C89.4320141,24.0311188 90.411547,23.8386207 91.4837545,23.8386207 C92.5559621,23.8386207 93.535495,24.0277998 94.4223827,24.4061638 C95.3092704,24.7845278 96.070394,25.2989623 96.7057762,25.9494828 C97.3411584,26.6000033 97.8375434,27.3633577 98.1949459,28.239569 C98.5523484,29.1157802 98.731047,30.0450813 98.731047,31.0275 Z M96.1696751,31.0673276 C96.1696751,30.3902552 96.053852,29.7497013 95.8222022,29.1456466 C95.5905524,28.5415918 95.2662476,28.0138816 94.849278,27.5625 C94.4323084,27.1111184 93.9326142,26.7526737 93.3501805,26.4871552 C92.7677468,26.2216366 92.1323741,26.0888793 91.4440433,26.0888793 C90.7557126,26.0888793 90.1236491,26.2183177 89.547834,26.4771983 C88.9720188,26.7360789 88.4789431,27.0878857 88.0685921,27.5326293 C87.658241,27.9773729 87.3372455,28.5017642 87.1055957,29.105819 C86.8739459,29.7098737 86.7581228,30.3504276 86.7581228,31.0275 C86.7581228,31.7045724 86.8739459,32.3451263 87.1055957,32.949181 C87.3372455,33.5532358 87.6615503,34.080946 88.0785199,34.5323276 C88.4954895,34.9837092 88.9951836,35.3421538 89.5776173,35.6076724 C90.1600511,35.873191 90.7954238,36.0059483 91.4837545,36.0059483 C92.1720853,36.0059483 92.8041488,35.8765099 93.3799639,35.6176293 C93.9557791,35.3587487 94.4488548,35.0069419 94.8592058,34.5621983 C95.2695568,34.1174547 95.5905524,33.5930634 95.8222022,32.9890086 C96.053852,32.3849539 96.1696751,31.7443999 96.1696751,31.0673276 Z M115.135379,31.0275 C115.135379,32.0099187 114.956681,32.9392198 114.599278,33.815431 C114.241876,34.6916423 113.738872,35.4583157 113.090253,36.1154741 C112.441633,36.7726326 111.673891,37.293705 110.787004,37.6787069 C109.900116,38.0637088 108.920583,38.2562069 107.848375,38.2562069 C106.776168,38.2562069 105.796635,38.0670278 104.909747,37.6886638 C104.02286,37.3102998 103.261736,36.7958653 102.626354,36.1453448 C101.990972,35.4948243 101.494587,34.7314699 101.137184,33.8552586 C100.779782,32.9790473 100.601083,32.0497463 100.601083,31.0673276 C100.601083,30.0849089 100.779782,29.1556078 101.137184,28.2793966 C101.494587,27.4031853 101.99759,26.6365119 102.646209,25.9793534 C103.294829,25.322195 104.062571,24.8011226 104.949459,24.4161207 C105.836346,24.0311188 106.815879,23.8386207 107.888087,23.8386207 C108.960294,23.8386207 109.939827,24.0277998 110.826715,24.4061638 C111.713603,24.7845278 112.474726,25.2989623 113.110108,25.9494828 C113.745491,26.6000033 114.241876,27.3633577 114.599278,28.239569 C114.956681,29.1157802 115.135379,30.0450813 115.135379,31.0275 Z M112.574007,31.0673276 C112.574007,30.3902552 112.458184,29.7497013 112.226534,29.1456466 C111.994885,28.5415918 111.67058,28.0138816 111.25361,27.5625 C110.836641,27.1111184 110.336946,26.7526737 109.754513,26.4871552 C109.172079,26.2216366 108.536706,26.0888793 107.848375,26.0888793 C107.160045,26.0888793 106.527981,26.2183177 105.952166,26.4771983 C105.376351,26.7360789 104.883275,27.0878857 104.472924,27.5326293 C104.062573,27.9773729 103.741578,28.5017642 103.509928,29.105819 C103.278278,29.7098737 103.162455,30.3504276 103.162455,31.0275 C103.162455,31.7045724 103.278278,32.3451263 103.509928,32.949181 C103.741578,33.5532358 104.065882,34.080946 104.482852,34.5323276 C104.899822,34.9837092 105.399516,35.3421538 105.981949,35.6076724 C106.564383,35.873191 107.199756,36.0059483 107.888087,36.0059483 C108.576417,36.0059483 109.208481,35.8765099 109.784296,35.6176293 C110.360111,35.3587487 110.853187,35.0069419 111.263538,34.5621983 C111.673889,34.1174547 111.994885,33.5930634 112.226534,32.9890086 C112.458184,32.3849539 112.574007,31.7443999 112.574007,31.0673276 Z M130.189531,31.0275 C130.189531,32.0099187 130.010832,32.929263 129.65343,33.7855603 C129.296027,34.6418577 128.789715,35.3819796 128.134477,36.0059483 C127.479239,36.6299169 126.69826,37.1211189 125.791516,37.479569 C124.884773,37.838019 123.888694,38.0172414 122.803249,38.0172414 L117.620939,38.0172414 L117.620939,24.0775862 L122.803249,24.0775862 C123.888694,24.0775862 124.884773,24.2534896 125.791516,24.6053017 C126.69826,24.9571138 127.479239,25.4449969 128.134477,26.0689655 C128.789715,26.6929342 129.296027,27.4297371 129.65343,28.2793966 C130.010832,29.129056 130.189531,30.0450813 130.189531,31.0275 Z M127.628159,31.0673276 C127.628159,30.3769793 127.512336,29.7430632 127.280686,29.1655603 C127.049036,28.5880575 126.724731,28.0868987 126.307762,27.662069 C125.890792,27.2372393 125.38448,26.905346 124.788809,26.6663793 C124.193138,26.4274126 123.531291,26.307931 122.803249,26.307931 L120.063177,26.307931 L120.063177,35.7868966 L122.803249,35.7868966 C123.531291,35.7868966 124.193138,35.6707339 124.788809,35.4384052 C125.38448,35.2060764 125.890792,34.8808211 126.307762,34.4626293 C126.724731,34.0444376 127.049036,33.5465977 127.280686,32.9690948 C127.512336,32.3915919 127.628159,31.7576759 127.628159,31.0673276 Z M132.67509,38.0172414 L132.67509,24.0775862 L135.117329,24.0775862 L135.117329,35.7868966 L142.424188,35.7868966 L142.424188,38.0172414 L132.67509,38.0172414 Z M151.680506,23.9780172 L157.796029,38.0172414 L155.214802,38.0172414 L153.805054,34.6518103 L147.232852,34.6518103 L145.803249,38.0172414 L143.301444,38.0172414 L149.416968,23.9780172 L151.680506,23.9780172 Z M152.911552,32.4812069 L150.509025,26.9053448 L148.126354,32.4812069 L152.911552,32.4812069 Z M169.415163,33.7158621 L169.415163,24.0775862 L171.81769,24.0775862 L171.81769,38.0172414 L169.772563,38.0172414 L162.108303,28.1001724 L162.108303,38.0172414 L159.705776,38.0172414 L159.705776,24.0775862 L161.969314,24.0775862 L169.415163,33.7158621 Z M187.487365,31.0275 C187.487365,32.0099187 187.308666,32.929263 186.951264,33.7855603 C186.593861,34.6418577 186.087549,35.3819796 185.432311,36.0059483 C184.777073,36.6299169 183.996094,37.1211189 183.08935,37.479569 C182.182607,37.838019 181.186528,38.0172414 180.101083,38.0172414 L174.918773,38.0172414 L174.918773,24.0775862 L180.101083,24.0775862 C181.186528,24.0775862 182.182607,24.2534896 183.08935,24.6053017 C183.996094,24.9571138 184.777073,25.4449969 185.432311,26.0689655 C186.087549,26.6929342 186.593861,27.4297371 186.951264,28.2793966 C187.308666,29.129056 187.487365,30.0450813 187.487365,31.0275 Z M184.925993,31.0673276 C184.925993,30.3769793 184.81017,29.7430632 184.57852,29.1655603 C184.34687,28.5880575 184.022565,28.0868987 183.605596,27.662069 C183.188626,27.2372393 182.682314,26.905346 182.086643,26.6663793 C181.490972,26.4274126 180.829125,26.307931 180.101083,26.307931 L177.361011,26.307931 L177.361011,35.7868966 L180.101083,35.7868966 C180.829125,35.7868966 181.490972,35.6707339 182.086643,35.4384052 C182.682314,35.2060764 183.188626,34.8808211 183.605596,34.4626293 C184.022565,34.0444376 184.34687,33.5465977 184.57852,32.9690948 C184.81017,32.3915919 184.925993,31.7576759 184.925993,31.0673276 Z M192.037906,27.7218103 C192.037906,28.0006048 192.084236,28.239568 192.176895,28.4387069 C192.269555,28.6378458 192.438326,28.823706 192.683213,28.9962931 C192.9281,29.1688802 193.265642,29.3281889 193.695849,29.4742241 C194.126055,29.6202594 194.672079,29.7729302 195.333935,29.9322414 C196.061977,30.1181044 196.707278,30.3238782 197.269856,30.549569 C197.832434,30.7752597 198.299036,31.0507311 198.669675,31.3759914 C199.040315,31.7012516 199.3216,32.0796099 199.513538,32.5110776 C199.705476,32.9425453 199.801444,33.4503419 199.801444,34.0344828 C199.801444,34.6982792 199.679003,35.2890491 199.434116,35.8068103 C199.189229,36.3245716 198.848378,36.7626706 198.411553,37.1211207 C197.974727,37.4795708 197.451868,37.7517232 196.84296,37.9375862 C196.234052,38.1234492 195.565587,38.2163793 194.837545,38.2163793 C193.765338,38.2163793 192.739476,38.033838 191.759928,37.66875 C190.78038,37.303662 189.873651,36.7427624 189.039711,35.9860345 L190.509025,34.2336207 C191.184119,34.8177615 191.865821,35.2658174 192.554152,35.5778017 C193.242483,35.889786 194.023462,36.0457759 194.897112,36.0457759 C195.651628,36.0457759 196.2506,35.8864671 196.694043,35.5678448 C197.137487,35.2492225 197.359206,34.8177613 197.359206,34.2734483 C197.359206,34.0212056 197.316186,33.7955182 197.230145,33.5963793 C197.144103,33.3972404 196.98526,33.2146991 196.75361,33.04875 C196.52196,32.8828009 196.204274,32.7268111 195.800542,32.5807759 C195.396809,32.4347406 194.870641,32.2820698 194.222022,32.1227586 C193.480743,31.9501716 192.822205,31.7576735 192.24639,31.5452586 C191.670575,31.3328438 191.187427,31.0673292 190.796932,30.7487069 C190.406436,30.4300846 190.108605,30.0450885 189.90343,29.5937069 C189.698254,29.1423253 189.595668,28.5913826 189.595668,27.9408621 C189.595668,27.3301694 189.7148,26.7759077 189.953069,26.2780603 C190.191337,25.780213 190.518951,25.3520708 190.935921,24.9936207 C191.35289,24.6351706 191.852584,24.3596992 192.435018,24.1671983 C193.017452,23.9746973 193.652825,23.8784483 194.341155,23.8784483 C195.360414,23.8784483 196.277072,24.0278002 197.091155,24.3265086 C197.905239,24.625217 198.669672,25.0599971 199.384477,25.6308621 L198.074007,27.4828448 C197.438625,27.0181873 196.809871,26.6630616 196.187726,26.4174569 C195.565581,26.1718522 194.936826,26.0490517 194.301444,26.0490517 C193.586639,26.0490517 193.030688,26.2116794 192.633574,26.5369397 C192.23646,26.8621999 192.037906,27.2571528 192.037906,27.7218103 Z" id="WOODLANDS" fill="#000000"></path>
                        <polygon id="Path" fill="#A5C325" points="68.765343 34.4128448 72.1805054 24.0377586 74.2454874 24.0377586 77.6606498 34.4128448 80.9765343 24.0775862 83.5379061 24.0775862 78.6931408 38.1168103 76.5884477 38.1168103 73.1732852 28.1001724 69.7581227 38.1168103 67.6534296 38.1168103 62.8086643 24.0775862 65.4494585 24.0775862"></polygon>
                        <path d="M4.29061051,50.6823708 C2.62996069,49.8134053 1.00541195,47.7858191 0.463895706,45.8668536 C-2.06318011,37.0323708 6.05956358,17.2271984 16.9259896,5.67719843 C20.2111881,2.16512946 23.1353759,-0.296939504 23.640791,0.0289225646 C24.0018018,0.246163944 23.8934986,0.427198427 20.1028849,4.98926739 C11.474726,15.3444398 5.55414841,29.2478881 5.55414841,39.0961639 C5.55414841,42.2461639 6.24464877,44.9385657 7.32310148,45.9392674 C7.90288703,46.4772533 9.23271018,45.8668536 10.1553262,45.3186326 C10.7405364,44.817359 11.1315432,44.3810764 12.2919634,43.4896558 C13.4523836,42.5982351 17.2480497,38.9749834 18.9644796,37.5195045 C20.1087662,36.5491853 21.0789164,36.2783223 21.8749303,36.7069157 C22.272422,37.088229 22.5747605,37.5604171 22.7819461,38.1234801 C23.640791,40.4575419 17.1425961,45.9392674 14.8682278,47.6409915 C10.9693109,50.5375433 6.45667549,51.8409915 4.29061051,50.6823708 Z" id="Path" fill="#CECECE"></path>
                        <path d="M11.5523466,57.067692 C10.5776173,56.5970024 8.63446034,55.4734836 11.5523466,55.65 C13.5339027,55.65 14.4385811,54.9419881 14.9819495,54.6 C15.5253178,54.2580119 17.2924188,53.1517241 18.7725632,52.1741379 C22.0216606,50.037931 25.9927798,46.0189655 29.7833935,41.0948276 C32.6353791,37.4017241 33.0129661,37.1482759 33.8628159,37.1482759 C34.6851446,37.1482759 35.198556,37.6913793 35.4151625,38.162069 C35.9205776,39.2482759 35.3068592,40.3344828 31.9133574,44.7155172 C27.0397112,51.0155172 22.1113295,55.3848137 17.9236039,56.7968827 C15.6492356,57.5934344 13.3574007,57.9004506 11.5523466,57.067692 Z" id="Path" fill="#383838"></path>
                        <path d="M4.72575231,50.8318765 C2.93285605,50.0468845 1.17962676,48.2778761 1.60402788,47.8114957 C1.7326408,47.6701611 4.15984226,48.3709714 5.75963951,47.9996338 C7.17907423,47.6701611 7.70179469,47.3824247 8.4533297,46.9147381 C9.63172871,46.1814105 11.7078587,44.3882485 18.2310469,38.1982759 C20.232945,36.3972472 21.2196246,35.8252807 22.2304549,37.0201083 C23.602296,38.6132118 23.2062116,39.6971338 19.7847285,43.3033658 C12.9297613,50.5284786 6.83125028,51.7537364 4.72575231,50.8318765 Z" id="Path" fill="#858585"></path>
                        <path d="M20.4997066,61.9412036 C18.5219899,60.7913793 21.6293736,60.9411848 23.6457447,59.9683905 C26.9382058,58.3799491 30.3610108,56.3017241 35.0902527,51.6310345 C38.0505415,48.7344828 39.0613718,48.3 40.1805054,49.5310345 C41.4440433,50.9068966 40.9747292,52.0655172 38.1588448,54.8172414 C35.0180505,57.9310345 30.3555073,61.2222352 29.0974729,61.7689655 C27.8394385,62.3156958 26.2172014,62.8027737 24.8814613,62.8027737 C23.0764071,62.8027737 21.4022337,62.520514 20.4997066,61.9412036 Z" id="Path" fill="#030303"></path>
                        <g id="Circles" transform="translate(22.743682, 3.258621)" fill="#A5C325" fill-rule="nonzero">
                            <ellipse id="Oval" cx="30.1444043" cy="20.8189655" rx="1.62454874" ry="1.62931034"></ellipse>
                            <ellipse id="Oval" cx="28.1588448" cy="27.5172414" rx="1.80505415" ry="1.81034483"></ellipse>
                            <ellipse id="Oval" cx="24.7292419" cy="34.5775862" rx="1.98555957" ry="1.99137931"></ellipse>
                            <ellipse id="Oval" cx="20.5776173" cy="42" rx="2.16606498" ry="2.17241379"></ellipse>
                            <ellipse id="Oval" cx="13.3574007" cy="1.44827586" rx="1.44404332" ry="1.44827586"></ellipse>
                            <ellipse id="Oval" cx="18.5920578" cy="21.9051724" rx="1.62454874" ry="1.62931034"></ellipse>
                            <ellipse id="Oval" cx="31.0469314" cy="14.1206897" rx="1.44404332" ry="1.44827586"></ellipse>
                            <ellipse id="Oval" cx="12.2743682" cy="7.96551724" rx="1.44404332" ry="1.44827586"></ellipse>
                            <ellipse id="Oval" cx="14.9819495" cy="28.7844828" rx="1.98555957" ry="1.99137931"></ellipse>
                            <ellipse id="Oval" transform="translate(10.288809, 14.663793) rotate(1.000000) translate(-10.288809, -14.663793) " cx="10.2888087" cy="14.6637931" rx="1.62455019" ry="1.62930889"></ellipse>
                            <ellipse id="Oval" transform="translate(6.887311, 21.752325) rotate(1.000000) translate(-6.887311, -21.752325) " cx="6.88731063" cy="21.7523252" rx="1.80505576" ry="1.81034322"></ellipse>
                            <ellipse id="Oval" transform="translate(2.377798, 29.177871) rotate(1.000000) translate(-2.377798, -29.177871) " cx="2.37779802" cy="29.1778709" rx="1.98556134" ry="1.99137754"></ellipse>
                        </g>
                    </g>
                </g>
            </g>
        </g>
    </g>
</svg>